<svg width="150" height="150" viewBox="0 0 150 150" fill="none" xmlns="http://www.w3.org/2000/svg">
<rect width="150" height="150" fill="#F0F0F0"/>
<g clip-path="url(#clip0_1638_4702)">
<path d="M67.5982 33.1205C71.0023 37.857 69.922 44.4565 65.1856 47.8601L42.6241 64.0747C37.8876 67.4783 31.2881 66.3985 27.884 61.6616C24.4803 56.9252 25.5606 50.3256 30.297 46.922L52.8586 30.7074C57.595 27.3038 64.1941 28.3841 67.5982 33.1205Z" fill="#EA4336" stroke="#1E1E1E" stroke-width="2"/>
<path d="M27.8841 49.3381C24.4805 54.0745 25.5602 60.6741 30.2972 64.0782L52.8587 80.2923C57.5952 83.6964 64.1942 82.6161 67.5983 77.8792C71.0024 73.1428 69.9222 66.5437 65.1858 63.1396L42.6242 46.925C37.8878 43.5214 31.2882 44.6017 27.8841 49.3381Z" fill="#4285F4" stroke="#1E1E1E" stroke-width="2"/>
<path d="M122.115 49.3381C125.519 54.0745 124.439 60.6741 119.702 64.0782L97.1407 80.2923C92.4042 83.6964 85.8047 82.6161 82.4006 77.8792C78.9969 73.1428 80.0772 66.5437 84.8136 63.1396L107.375 46.925C112.112 43.5214 118.711 44.6017 122.115 49.3381Z" fill="#FAAB00" stroke="#1E1E1E" stroke-width="2"/>
<path d="M82.4011 33.1205C78.997 37.857 80.0767 44.4565 84.8137 47.8601L107.375 64.0747C112.112 67.4783 118.711 66.398 122.115 61.6616C125.519 56.9252 124.439 50.3256 119.702 46.922L97.1407 30.7074C92.4043 27.3038 85.8047 28.3841 82.4011 33.1205Z" fill="#34A853" stroke="#1E1E1E" stroke-width="2"/>
</g>
<path d="M34.886 118.592C33.3607 118.592 32.0433 118.289 30.934 117.682C29.842 117.058 29.0013 116.166 28.412 115.004C27.8227 113.843 27.528 112.456 27.528 110.844V99.5603H30.986V111.078C30.986 111.962 31.1333 112.716 31.428 113.34C31.7227 113.964 32.156 114.441 32.728 114.77C33.3173 115.1 34.0367 115.264 34.886 115.264C35.7527 115.264 36.472 115.1 37.044 114.77C37.616 114.441 38.0407 113.964 38.318 113.34C38.6127 112.716 38.76 111.962 38.76 111.078V99.5603H42.218V110.844C42.218 112.404 41.9233 113.765 41.334 114.926C40.7447 116.088 39.904 116.989 38.812 117.63C37.72 118.272 36.4113 118.592 34.886 118.592ZM54.7163 118.592C53.3469 118.592 52.0989 118.35 50.9723 117.864C49.8629 117.379 48.9096 116.703 48.1123 115.836C47.3323 114.97 46.7256 113.947 46.2923 112.768C45.8763 111.572 45.6683 110.272 45.6683 108.868C45.6683 107.464 45.8763 106.173 46.2923 104.994C46.7256 103.798 47.3323 102.767 48.1123 101.9C48.9096 101.016 49.8629 100.34 50.9723 99.8723C52.0989 99.387 53.3469 99.1443 54.7163 99.1443C56.0856 99.1443 57.3249 99.387 58.4343 99.8723C59.5436 100.34 60.4969 101.016 61.2943 101.9C62.0916 102.767 62.6983 103.798 63.1143 104.994C63.5476 106.173 63.7643 107.464 63.7643 108.868C63.7643 110.272 63.5476 111.572 63.1143 112.768C62.6983 113.947 62.0916 114.97 61.2943 115.836C60.4969 116.703 59.5436 117.379 58.4343 117.864C57.3249 118.35 56.0856 118.592 54.7163 118.592ZM54.7163 115.264C55.8083 115.264 56.7703 115.013 57.6023 114.51C58.4343 114.008 59.0756 113.28 59.5263 112.326C59.9943 111.373 60.2283 110.22 60.2283 108.868C60.2283 107.499 59.9943 106.346 59.5263 105.41C59.0756 104.457 58.4343 103.729 57.6023 103.226C56.7703 102.724 55.8083 102.472 54.7163 102.472C53.6243 102.472 52.6623 102.724 51.8303 103.226C50.9983 103.729 50.3483 104.457 49.8803 105.41C49.4296 106.346 49.2043 107.499 49.2043 108.868C49.2043 110.22 49.4296 111.373 49.8803 112.326C50.3483 113.28 50.9983 114.008 51.8303 114.51C52.6623 115.013 53.6243 115.264 54.7163 115.264ZM72.1795 118.592C71.0009 118.592 69.9869 118.41 69.1375 118.046C68.2882 117.665 67.6122 117.145 67.1095 116.486C66.6242 115.81 66.3035 115.048 66.1475 114.198L69.3975 113.652C69.5362 114.276 69.8482 114.762 70.3335 115.108C70.8189 115.438 71.4342 115.602 72.1795 115.602C72.8209 115.602 73.3755 115.49 73.8435 115.264C74.3289 115.022 74.5715 114.649 74.5715 114.146C74.5715 113.834 74.4675 113.574 74.2595 113.366C74.0515 113.141 73.7569 112.95 73.3755 112.794C73.0115 112.638 72.5609 112.517 72.0235 112.43L70.4635 112.144C69.7182 112.006 69.0509 111.772 68.4615 111.442C67.8895 111.096 67.4389 110.654 67.1095 110.116C66.7802 109.579 66.6155 108.946 66.6155 108.218C66.6155 107.404 66.8495 106.684 67.3175 106.06C67.8029 105.436 68.4442 104.951 69.2415 104.604C70.0562 104.258 70.9662 104.084 71.9715 104.084C73.0462 104.084 73.9649 104.232 74.7275 104.526C75.5075 104.804 76.1315 105.22 76.5995 105.774C77.0675 106.329 77.3795 107.014 77.5355 107.828L74.5455 108.296C74.3549 107.759 74.0429 107.378 73.6095 107.152C73.1762 106.927 72.6562 106.814 72.0495 106.814C71.4082 106.814 70.8882 106.944 70.4895 107.204C70.1082 107.464 69.9175 107.768 69.9175 108.114C69.9175 108.478 70.0735 108.782 70.3855 109.024C70.6975 109.267 71.2002 109.458 71.8935 109.596L73.7915 109.986C75.1262 110.264 76.1575 110.723 76.8855 111.364C77.6135 111.988 77.9775 112.898 77.9775 114.094C77.9775 114.996 77.7175 115.784 77.1975 116.46C76.6775 117.136 75.9755 117.665 75.0915 118.046C74.2249 118.41 73.2542 118.592 72.1795 118.592ZM85.0567 118.592C84.086 118.592 83.2453 118.41 82.5347 118.046C81.824 117.682 81.278 117.171 80.8967 116.512C80.5153 115.854 80.3247 115.082 80.3247 114.198C80.3247 113.28 80.5587 112.5 81.0267 111.858C81.4947 111.2 82.1273 110.697 82.9247 110.35C83.7393 110.004 84.6407 109.83 85.6287 109.83C86.062 109.83 86.478 109.848 86.8767 109.882C87.2753 109.917 87.674 109.969 88.0727 110.038C88.4887 110.108 88.9047 110.186 89.3207 110.272V109.18C89.3207 108.47 89.0693 107.898 88.5667 107.464C88.064 107.031 87.3533 106.814 86.4347 106.814C85.7587 106.814 85.1693 106.988 84.6667 107.334C84.164 107.664 83.8173 108.132 83.6267 108.738L80.6627 108.114C80.8707 107.196 81.2607 106.442 81.8327 105.852C82.422 105.263 83.1153 104.821 83.9127 104.526C84.7273 104.232 85.5853 104.084 86.4867 104.084C88.5493 104.084 90.092 104.552 91.1147 105.488C92.1373 106.424 92.6487 107.794 92.6487 109.596V118.176H89.3207V116.824H89.1127C88.8527 117.154 88.5233 117.457 88.1247 117.734C87.726 117.994 87.2667 118.202 86.7467 118.358C86.244 118.514 85.6807 118.592 85.0567 118.592ZM85.9147 115.94C86.6427 115.94 87.258 115.793 87.7607 115.498C88.2633 115.204 88.6447 114.822 88.9047 114.354C89.182 113.869 89.3207 113.349 89.3207 112.794C88.8353 112.638 88.3153 112.517 87.7607 112.43C87.206 112.326 86.66 112.274 86.1227 112.274C85.2733 112.274 84.658 112.456 84.2767 112.82C83.8953 113.167 83.7047 113.618 83.7047 114.172C83.7047 114.692 83.9127 115.117 84.3287 115.446C84.7447 115.776 85.2733 115.94 85.9147 115.94ZM96.3082 118.176V98.0003H99.7142V109.518L104.498 104.5H108.606V104.708L103.666 109.752L108.892 117.968V118.176H104.94L101.196 112.274L99.7142 113.808V118.176H96.3082ZM115.094 118.592C114.123 118.592 113.282 118.41 112.572 118.046C111.861 117.682 111.315 117.171 110.934 116.512C110.552 115.854 110.362 115.082 110.362 114.198C110.362 113.28 110.596 112.5 111.064 111.858C111.532 111.2 112.164 110.697 112.962 110.35C113.776 110.004 114.678 109.83 115.666 109.83C116.099 109.83 116.515 109.848 116.914 109.882C117.312 109.917 117.711 109.969 118.11 110.038C118.526 110.108 118.942 110.186 119.358 110.272V109.18C119.358 108.47 119.106 107.898 118.604 107.464C118.101 107.031 117.39 106.814 116.472 106.814C115.796 106.814 115.206 106.988 114.704 107.334C114.201 107.664 113.854 108.132 113.664 108.738L110.7 108.114C110.908 107.196 111.298 106.442 111.87 105.852C112.459 105.263 113.152 104.821 113.95 104.526C114.764 104.232 115.622 104.084 116.524 104.084C118.586 104.084 120.129 104.552 121.152 105.488C122.174 106.424 122.686 107.794 122.686 109.596V118.176H119.358V116.824H119.15C118.89 117.154 118.56 117.457 118.162 117.734C117.763 117.994 117.304 118.202 116.784 118.358C116.281 118.514 115.718 118.592 115.094 118.592ZM115.952 115.94C116.68 115.94 117.295 115.793 117.798 115.498C118.3 115.204 118.682 114.822 118.942 114.354C119.219 113.869 119.358 113.349 119.358 112.794C118.872 112.638 118.352 112.517 117.798 112.43C117.243 112.326 116.697 112.274 116.16 112.274C115.31 112.274 114.695 112.456 114.314 112.82C113.932 113.167 113.742 113.618 113.742 114.172C113.742 114.692 113.95 115.117 114.366 115.446C114.782 115.776 115.31 115.94 115.952 115.94Z" fill="#1E1E1E"/>
<defs>
<clipPath id="clip0_1638_4702">
<rect width="100" height="55.3527" fill="white" transform="translate(25 27.8237)"/>
</clipPath>
</defs>
</svg>
